<svg width="92" height="92" viewBox="0 0 92 92" fill="none" xmlns="http://www.w3.org/2000/svg">
<path d="M58.2762 7.87746C58.2762 7.87746 60.6121 8.57465 62.2581 9.2934L83.8421 40.1421C83.8421 40.1421 84.1152 41.1771 84.0865 44.2534L79.9537 52.1309L45.8993 29.9215L44.7852 14.8206L58.2762 7.87746ZM33.6087 7.64746C33.6087 7.64746 31.8406 8.13621 29.519 8.99152L7.18743 39.9337C7.18743 39.9337 6.92868 41.7306 6.91431 44.1096L11.3274 49.9962L29.7706 38.2375L43.4987 23.3953L41.7809 10.5296L33.6087 7.64746Z" fill="#2F2F2F"/>
<path d="M83.2169 44.3182C76.8416 44.3182 74.211 37.7704 72.6369 33.8532C72.3925 33.2279 72.1625 32.6601 71.9469 32.1929C70.8975 29.9504 68.885 28.7572 65.6722 27.0035C65.1475 26.716 64.6156 26.4213 64.091 26.1266C62.1216 24.9982 60.5835 23.8266 59.3975 22.5401C57.0903 20.0029 56.0769 17.0057 56.386 13.606C56.5656 11.5647 57.2485 9.61693 58.2691 7.87756C56.0985 7.25225 51.06 5.9585 45.7485 5.9585C41.055 5.9585 36.1819 6.97193 33.5944 7.64756C34.6941 9.44443 35.4128 11.4785 35.5997 13.6132C35.9016 17.0057 34.881 20.0101 32.581 22.5401C31.4022 23.8338 29.8713 25.0126 27.8947 26.1266C27.37 26.4213 26.8453 26.716 26.3206 27.0035C23.1078 28.7572 21.1025 29.9504 20.046 32.1929C19.8231 32.6601 19.5931 33.2351 19.3488 33.8604C17.7747 37.7704 15.1441 44.3182 8.73283 44.3182C8.09314 44.3182 7.48939 44.2319 6.90002 44.1097C6.89283 45.0441 6.85689 45.9641 6.90002 46.8985C7.51095 58.6501 11.3347 70.7394 19.7369 78.2576C26.5363 84.3382 36.11 87.4432 45.4897 87.4216C54.8694 87.4432 64.4431 84.3382 71.2353 78.2576C79.6447 70.7394 83.4613 58.6501 84.0722 46.8985C84.1153 46.0144 84.0866 45.1376 84.0722 44.2607C83.8063 44.2822 83.5188 44.3182 83.2169 44.3182Z" fill="#F79329"/>
<path d="M8.76168 40.1999H8.78324C13.1389 40.1999 14.9214 33.4364 16.3229 30.4536C18.2636 26.3136 22.1592 24.6605 25.8679 22.5546C27.2911 21.7495 28.5632 20.8511 29.5551 19.773C30.9279 18.2636 31.7257 16.4092 31.5101 13.9799C31.3448 12.1614 30.6117 10.4436 29.5192 8.99174C28.1536 7.18768 26.2345 5.80768 24.0279 5.23268C22.2886 4.78705 20.6067 4.57861 18.9967 4.57861C6.19574 4.5858 -2.06988 17.8108 0.862617 30.6621C1.56699 33.7599 3.68012 38.7264 7.18762 39.9339C7.68355 40.0992 8.20824 40.1999 8.76168 40.1999ZM73.0107 4.5858C71.4007 4.5858 69.7189 4.79424 67.9795 5.23986C65.6436 5.84361 63.6311 7.3458 62.2654 9.3008C61.2951 10.6808 60.6554 12.2908 60.4973 13.9799C60.2817 16.4092 61.0795 18.2564 62.4523 19.773C63.4442 20.8511 64.7236 21.7495 66.1395 22.5546C69.8411 24.6605 73.7367 26.3064 75.6845 30.4536C77.0789 33.4364 78.8686 40.1999 83.2242 40.1999H83.2386C83.447 40.1999 83.6482 40.1783 83.8495 40.1496C87.9464 39.6105 90.3686 34.033 91.1376 30.6621C94.0701 17.8108 85.8117 4.5858 73.0107 4.5858Z" fill="#F79329"/>
<path d="M26.5937 58.3623C23.8696 58.3407 21.6703 55.7892 21.699 52.6554C21.7062 49.5289 23.9343 46.9989 26.644 47.0204C29.3609 47.0348 31.5531 49.5936 31.5387 52.7201C31.5243 55.8539 29.2962 58.3623 26.5937 58.3623ZM55.7893 76.8701C55.5449 77.4523 54.9699 77.7973 54.5459 78.0489L54.3518 78.1639C52.2603 79.4217 49.1121 79.242 46.9487 78.2286L46.7187 78.1279C46.4168 77.9842 46.2803 77.9195 46.1006 77.9195C45.7987 77.9482 45.5184 78.0704 45.2524 78.1711C45.0512 78.2573 44.8571 78.3364 44.6703 78.4082C42.5787 79.0695 40.2859 79.5007 38.1656 78.7029C37.5762 78.4801 36.7856 78.0201 36.3543 77.4092C36.0381 76.9779 35.9159 76.3957 36.0453 75.907C36.1531 75.4901 36.419 75.1595 36.8071 74.9798C37.5618 74.6132 38.4028 74.9295 38.949 75.2242C40.2931 75.9501 42.6146 75.9932 43.7287 74.8073C44.1168 74.3976 44.2965 73.8011 44.2606 73.0392C44.2534 72.9745 44.2606 72.9026 44.2534 72.8451C43.1249 72.7948 42.0324 72.6151 40.9687 72.227C37.684 71.0339 36.7568 68.0295 38.0793 65.2264C38.2806 64.8095 38.5178 64.4214 38.7765 64.0692C40.1781 62.2436 42.4781 61.417 45.1087 61.2948C48.1634 61.1511 52.1668 62.2579 53.7624 64.9029C54.8046 66.6351 54.3303 69.2801 53.0006 70.7751C51.7787 72.1551 49.5937 72.5504 47.5812 72.7229C47.5668 73.4273 47.5668 74.1964 47.8471 74.6851L48.2928 75.0445C49.5721 75.9286 51.599 76.1082 52.9934 75.3104L53.2306 75.1739C53.4462 75.0517 53.6546 74.9295 53.899 74.8432C54.5459 74.5917 55.279 74.7929 55.6384 75.3536C55.9474 75.7776 55.9906 76.367 55.7893 76.8701ZM65.3343 58.3623C62.6318 58.3623 60.4109 55.8539 60.4037 52.7129C60.3821 49.5864 62.5815 47.0276 65.2912 47.0132C68.0081 46.9989 70.2218 49.5217 70.2506 52.6482C70.2578 55.7892 68.0584 58.3407 65.3343 58.3623Z" fill="#2F2F2F"/>
</svg>
