<svg width="52" height="52" viewBox="0 0 52 52" fill="none" xmlns="http://www.w3.org/2000/svg">
<circle cx="26" cy="26" r="26" transform="rotate(180 26 26)" fill="#D9D9D9"/>
<path fill-rule="evenodd" clip-rule="evenodd" d="M28.8889 34.2C28.8889 35.8016 27.5955 37.1 26 37.1C24.4045 37.1 23.1111 35.8016 23.1111 34.2H28.8889ZM26 11C20.41 11 15.8889 16.191 15.8889 22.6V25.9205L13 34.2H20.2222C20.2222 37.4033 22.809 40 26 40C29.191 40 31.7778 37.4033 31.7778 34.2H39L36.1111 25.9205V23.0205C36.1111 17.525 32.9189 12.4935 28.2389 11.4205C27.5124 11.1897 26.7605 11.0485 26 11ZM17.0733 31.3L18.6189 26.95L18.7778 26.4135V22.6C18.7778 17.8005 22.0133 13.9 26 13.9C26.5209 13.8991 27.04 13.9624 27.5456 14.0885C30.7811 14.886 33.2222 18.6995 33.2222 22.948V26.4135L33.3811 26.8775L34.9267 31.3H17.0733Z" fill="black"/>
</svg>
