<svg width="17" height="20" viewBox="0 0 17 20" fill="none" xmlns="http://www.w3.org/2000/svg">
<path d="M8.93116 19.2151L8.92151 19.217L8.85921 19.25L8.84166 19.2538L8.82938 19.25L8.76708 19.217C8.75772 19.2138 8.75071 19.2154 8.74603 19.2217L8.74252 19.2311L8.7276 19.6356L8.73199 19.6545L8.74076 19.6668L8.83201 19.7368L8.84517 19.7405L8.8557 19.7368L8.94695 19.6668L8.95748 19.6517L8.96099 19.6356L8.94607 19.2321C8.94373 19.222 8.93876 19.2163 8.93116 19.2151ZM9.16367 19.1083L9.15227 19.1102L8.98995 19.1981L8.98117 19.2075L8.97854 19.2179L8.99433 19.6243L8.99872 19.6356L9.00574 19.6423L9.1821 19.7301C9.19321 19.7333 9.20169 19.7308 9.20754 19.7226L9.21105 19.7094L9.18122 19.1291C9.1783 19.1177 9.17245 19.1108 9.16367 19.1083ZM8.53632 19.1102C8.53246 19.1076 8.52784 19.1068 8.52342 19.1079C8.51901 19.1089 8.51515 19.1118 8.51264 19.1158L8.50737 19.1291L8.47754 19.7094C8.47812 19.7207 8.4831 19.7283 8.49246 19.732L8.50562 19.7301L8.68197 19.6423L8.69075 19.6347L8.69426 19.6243L8.70917 19.2179L8.70654 19.2066L8.69777 19.1971L8.53632 19.1102Z" fill="#016CEC"/>
<path d="M9.28902 0.0683594C9.51287 0.0686266 9.72818 0.160865 9.89096 0.326229C10.0537 0.491593 10.1517 0.717601 10.1648 0.958075C10.1779 1.19855 10.1052 1.43534 9.96154 1.62006C9.81787 1.80478 9.61406 1.9235 9.39178 1.95195L9.28902 1.95857H2.26288V15.19H14.5586V7.62919C14.5589 7.3883 14.6446 7.15661 14.7983 6.98145C14.9519 6.80628 15.162 6.70088 15.3854 6.68676C15.6089 6.67264 15.8289 6.75088 16.0006 6.90549C16.1723 7.0601 16.2826 7.27941 16.309 7.51861L16.3152 7.62919V15.19C16.3153 15.6669 16.1479 16.1262 15.8466 16.4759C15.5453 16.8256 15.1323 17.0397 14.6904 17.0755L14.5586 17.0802H2.26288C1.81973 17.0804 1.3929 16.9003 1.06796 16.576C0.743015 16.2518 0.543976 15.8073 0.510739 15.3318L0.506348 15.19V1.95857C0.506208 1.48169 0.673575 1.02238 0.974901 0.672708C1.27623 0.323037 1.68924 0.108851 2.13114 0.073085L2.26288 0.0683594H9.28902ZM14.772 0.39253C14.9301 0.223028 15.1422 0.124618 15.3652 0.117289C15.5882 0.10996 15.8055 0.194262 15.9729 0.353071C16.1402 0.51188 16.2452 0.733289 16.2663 0.972327C16.2875 1.21137 16.2233 1.45011 16.0868 1.64007L16.0139 1.72985L7.31907 11.0854C7.16102 11.2549 6.94894 11.3533 6.7259 11.3607C6.50286 11.368 6.2856 11.2837 6.11823 11.1249C5.95086 10.9661 5.84594 10.7447 5.82478 10.5056C5.80362 10.2666 5.86781 10.0279 6.0043 9.8379L6.0772 9.74906L14.772 0.39253Z" fill="#016CEC"/>
</svg>
